<svg xmlns="http://www.w3.org/2000/svg" viewBox="0 0 1023.97 383.35"><defs><style>.cls-1{fill:#054240;}</style></defs><g id="Layer_2" data-name="Layer 2"><g id="Layer_1-2" data-name="Layer 1"><path class="cls-1" d="M282.07,294.63V107.27h46.45v22.47c16.38-25.13,35.42-27.42,55.6-27.42h6.47V153a83.44,83.44,0,0,0-13.71-1.14c-30.46,0-45.31,15.23-45.31,45.31v97.49Z"/><path class="cls-1" d="M526.43,294.63,485.3,210.47l-24,24.75v59.41H411.43V38.73h49.89V178.48L523,107.27h60.55L520.72,176.2,582,294.63Z"/><path class="cls-1" d="M602.62,84.81V38.73h49.5V84.81Zm0,209.82V107.27h49.5V294.63Z"/><path class="cls-1" d="M791.77,269.87c-6.85,16.76-27.41,26.66-50.64,26.66-39.22,0-68.54-26.66-68.54-67.78V107.27h49.5V221.51c0,23.23,10.66,35,31.6,35,22.47,0,38.08-14.85,38.08-35V107.27h49.51V299.58c0,52.93-38.08,83.77-86.06,83.77-54.84,0-82.63-30.08-82.63-78.44h46.07c0,22.08,13,35.79,38.84,35.79,17.9,0,34.27-15.61,34.27-40.36Z"/><path class="cls-1" d="M977.9,294.63a73.1,73.1,0,0,1-3-16.76c-11.8,12.95-31.6,21.71-56.73,21.71-42.65,0-62.46-20.95-62.46-51.41,0-54.07,36.18-60.17,86.06-67,24.75-3.43,31.61-8.38,31.61-21.32,0-12.19-12.19-19.42-31.61-19.42-22.46,0-31.6,11-33.89,27.79H861.76c.76-38.84,22.09-65.88,82.25-65.88,59.4,0,80,26.66,80,73.88V294.63Zm-3.43-91.78c-5,5-13.71,7.62-32,11.05-28.18,5.33-37.32,13.32-37.32,29.32,0,14.09,8.38,20.94,24,20.94,25.51,0,44.55-18.66,44.93-40.74Z"/><path class="cls-1" d="M247.63,107.33l-42.32,21a84,84,0,1,1-107-37.53l9.43,41.72,30.08-41.63,30.09-41.63L122.88,24.66,77.83,0l10,44.25A131.23,131.23,0,1,0,262.54,168,130,130,0,0,0,247.63,107.33Z"/></g></g></svg>