<svg xmlns="http://www.w3.org/2000/svg" viewBox="0 0 794.16501 551.18438">
  <title>logo</title>
  <g id="e84bf54c-70ac-41d5-98c4-3c5d7a4420e5" data-name="Graphic Elements">
    <g>
      <path d="M652.1371,455.62538A76.88021,76.88021,0,0,0,674.47176,401.314c0-42.47381-34.23786-76.90623-76.47168-76.90623a76.25987,76.25987,0,0,0-63.85194,34.63663C530.51623,362.7063,226.09557,740.04067,223.253,744.37511A76.87846,76.87846,0,0,0,200.9175,798.686c0,42.47381,34.23786,76.90623,76.47169,76.90623a76.26,76.26,0,0,0,63.85144-34.63582C344.873,837.29452,649.294,459.95966,652.1371,455.62538Z" transform="translate(-200.9175 -324.40781)" style="fill: #fff"/>
      <path d="M828.28549,634.66718A76.88388,76.88388,0,0,0,850.676,580.29457c0-42.474-34.23737-76.90623-76.47164-76.90623a76.25952,76.25952,0,0,0-63.86968,34.6662c-3.66342,3.68555-163.55286,201.89023-166.41544,206.25865A76.88456,76.88456,0,0,0,521.52873,798.686c0,42.47381,34.23737,76.90623,76.47135,76.90623a76.26,76.26,0,0,0,63.86916-34.66506C665.53315,837.24109,825.42291,639.03641,828.28549,634.66718Z" transform="translate(-200.9175 -324.40781)" style="fill: #fff"/>
      <ellipse cx="717.69345" cy="76.90635" rx="76.47131" ry="76.90611" style="fill: #fff"/>
      <ellipse cx="76.47169" cy="76.90635" rx="76.47169" ry="76.90611" style="fill: #fff"/>
    </g>
  </g>
  <g id="a3e4f454-5d5b-455e-83e6-a9d75a8cda11" data-name="Text">
    <text x="-200.9175" y="-324.40781"/>  </g>
</svg>
